<?xml version="1.0" encoding="utf-8" ?>
<svg baseProfile="full" height="57.5mm" version="1.1" viewBox="0,0,306.20000000000005,57.5" width="306.20000000000005mm" xmlns="http://www.w3.org/2000/svg" xmlns:ev="http://www.w3.org/2001/xml-events" xmlns:xlink="http://www.w3.org/1999/xlink"><defs /><rect fill="#ffffff" height="57.5" width="306.20000000000005" x="0" y="0" /><text fill="#586e75" style="font-size:6px; font-family:Arial; font-weight:bold;" x="10" y="10">Kai</text><text fill="#586e75" style="font-size:3px; font-family:Arial;" x="10" y="14.4">2024: 406 hours</text><text fill="#586e75" style="font-size:2.5px; font-family:Arial" x="10" y="18.3">Jan</text><rect fill="#81c6fc" height="4" rx="1" ry="1" width="4" x="10" y="19.7"><title>2024-01-01 0.32 mins</title></rect><rect fill="#81c6fc" height="4" rx="1" ry="1" width="4" x="10" y="25.1"><title>2024-01-02 0.02 mins</title></rect><rect fill="#7cc4fc" height="4" rx="1" ry="1" width="4" x="10" y="30.5"><title>2024-01-03 32.67 mins</title></rect><rect fill="#53b3fd" height="4" rx="1" ry="1" width="4" x="10" y="35.9"><title>2024-01-04 82.53 mins</title></rect><rect fill="#81c6fc" height="4" rx="1" ry="1" width="4" x="10" y="41.300000000000004"><title>2024-01-05 0.07 mins</title></rect><rect fill="#53b3fd" height="4" rx="1" ry="1" width="4" x="10" y="46.699999999999996"><title>2024-01-06 85.05 mins</title></rect><rect fill="#50b2fd" height="4" rx="1" ry="1" width="4" x="10" y="52.1"><title>2024-01-07 116.4 mins</title></rect><rect fill="#81c6fc" height="4" rx="1" ry="1" width="4" x="15.4" y="19.7"><title>2024-01-08 0.05 mins</title></rect><rect fill="#81c6fc" height="4" rx="1" ry="1" width="4" x="15.4" y="25.1"><title>2024-01-09 0.02 mins</title></rect><rect fill="#81c6fc" height="4" rx="1" ry="1" width="4" x="15.4" y="30.5"><title>2024-01-10 2.67 mins</title></rect><rect fill="#eee8d5" height="4" rx="1" ry="1" width="4" x="15.4" y="35.9"><title>2024-01-11</title></rect><rect fill="#7cc4fc" height="4" rx="1" ry="1" width="4" x="15.4" y="41.300000000000004"><title>2024-01-12 32.92 mins</title></rect><rect fill="#34A7FF" height="4" rx="1" ry="1" width="4" x="15.4" y="46.699999999999996"><title>2024-01-13 265.6 mins</title></rect><rect fill="#78c2fc" height="4" rx="1" ry="1" width="4" x="15.4" y="52.1"><title>2024-01-14 52.93 mins</title></rect><rect fill="#54b4fd" height="4" rx="1" ry="1" width="4" x="20.8" y="19.7"><title>2024-01-15 70.35 mins</title></rect><rect fill="#80c5fc" height="4" rx="1" ry="1" width="4" x="20.8" y="25.1"><title>2024-01-16 8.17 mins</title></rect><rect fill="#52b3fd" height="4" rx="1" ry="1" width="4" x="20.8" y="30.5"><title>2024-01-17 92.4 mins</title></rect><rect fill="#34A7FF" height="4" rx="1" ry="1" width="4" x="20.8" y="35.9"><title>2024-01-18 140.37 mins</title></rect><rect fill="#7ec5fc" height="4" rx="1" ry="1" width="4" x="20.8" y="41.300000000000004"><title>2024-01-19 17.72 mins</title></rect><rect fill="#7fc5fc" height="4" rx="1" ry="1" width="4" x="20.8" y="46.699999999999996"><title>2024-01-20 9.27 mins</title></rect><rect fill="#7bc3fc" height="4" rx="1" ry="1" width="4" x="20.8" y="52.1"><title>2024-01-21 36.83 mins</title></rect><rect fill="#7fc5fc" height="4" rx="1" ry="1" width="4" x="26.200000000000003" y="19.7"><title>2024-01-22 14.5 mins</title></rect><rect fill="#7ec5fc" height="4" rx="1" ry="1" width="4" x="26.200000000000003" y="25.1"><title>2024-01-23 18.17 mins</title></rect><rect fill="#34A7FF" height="4" rx="1" ry="1" width="4" x="26.200000000000003" y="30.5"><title>2024-01-24 213.1 mins</title></rect><rect fill="#7bc3fc" height="4" rx="1" ry="1" width="4" x="26.200000000000003" y="35.9"><title>2024-01-25 36.53 mins</title></rect><rect fill="#55b4fd" height="4" rx="1" ry="1" width="4" x="26.200000000000003" y="41.300000000000004"><title>2024-01-26 63.52 mins</title></rect><rect fill="#7ac3fc" height="4" rx="1" ry="1" width="4" x="26.200000000000003" y="46.699999999999996"><title>2024-01-27 44.37 mins</title></rect><rect fill="#7fc5fc" height="4" rx="1" ry="1" width="4" x="26.200000000000003" y="52.1"><title>2024-01-28 13.12 mins</title></rect><rect fill="#7ec5fc" height="4" rx="1" ry="1" width="4" x="31.6" y="19.7"><title>2024-01-29 15.35 mins</title></rect><rect fill="#80c5fc" height="4" rx="1" ry="1" width="4" x="31.6" y="25.1"><title>2024-01-30 8.12 mins</title></rect><rect fill="#34A7FF" height="4" rx="1" ry="1" width="4" x="31.6" y="30.5"><title>2024-01-31 204.28 mins</title></rect><rect fill="#53b3fd" height="4" rx="1" ry="1" width="4" x="31.6" y="35.9"><title>2024-02-01 84.32 mins</title></rect><rect fill="#81c6fc" height="4" rx="1" ry="1" width="4" x="31.6" y="41.300000000000004"><title>2024-02-02 0.07 mins</title></rect><rect fill="#81c6fc" height="4" rx="1" ry="1" width="4" x="31.6" y="46.699999999999996"><title>2024-02-03 0.05 mins</title></rect><rect fill="#81c6fc" height="4" rx="1" ry="1" width="4" x="31.6" y="52.1"><title>2024-02-04 0.08 mins</title></rect><text fill="#586e75" style="font-size:2.5px; font-family:Arial" x="37.0" y="18.3">Feb</text><rect fill="#81c6fc" height="4" rx="1" ry="1" width="4" x="37.0" y="19.7"><title>2024-02-05 0.12 mins</title></rect><rect fill="#81c6fc" height="4" rx="1" ry="1" width="4" x="37.0" y="25.1"><title>2024-02-06 0.03 mins</title></rect><rect fill="#81c6fc" height="4" rx="1" ry="1" width="4" x="37.0" y="30.5"><title>2024-02-07 0.05 mins</title></rect><rect fill="#34A7FF" height="4" rx="1" ry="1" width="4" x="37.0" y="35.9"><title>2024-02-08 169.95 mins</title></rect><rect fill="#34A7FF" height="4" rx="1" ry="1" width="4" x="37.0" y="41.300000000000004"><title>2024-02-09 264.35 mins</title></rect><rect fill="#53b3fd" height="4" rx="1" ry="1" width="4" x="37.0" y="46.699999999999996"><title>2024-02-10 88.55 mins</title></rect><rect fill="#81c6fc" height="4" rx="1" ry="1" width="4" x="37.0" y="52.1"><title>2024-02-11 0.03 mins</title></rect><rect fill="#81c6fc" height="4" rx="1" ry="1" width="4" x="42.4" y="19.7"><title>2024-02-12 0.12 mins</title></rect><rect fill="#7fc5fc" height="4" rx="1" ry="1" width="4" x="42.4" y="25.1"><title>2024-02-13 9.73 mins</title></rect><rect fill="#81c6fc" height="4" rx="1" ry="1" width="4" x="42.4" y="30.5"><title>2024-02-14 0.03 mins</title></rect><rect fill="#34A7FF" height="4" rx="1" ry="1" width="4" x="42.4" y="35.9"><title>2024-02-15 244.13 mins</title></rect><rect fill="#80c5fc" height="4" rx="1" ry="1" width="4" x="42.4" y="41.300000000000004"><title>2024-02-16 7.33 mins</title></rect><rect fill="#79c3fc" height="4" rx="1" ry="1" width="4" x="42.4" y="46.699999999999996"><title>2024-02-17 47.32 mins</title></rect><rect fill="#54b3fd" height="4" rx="1" ry="1" width="4" x="42.4" y="52.1"><title>2024-02-18 76.53 mins</title></rect><rect fill="#7ec5fc" height="4" rx="1" ry="1" width="4" x="47.8" y="19.7"><title>2024-02-19 16.02 mins</title></rect><rect fill="#79c3fc" height="4" rx="1" ry="1" width="4" x="47.8" y="25.1"><title>2024-02-20 46.03 mins</title></rect><rect fill="#34A7FF" height="4" rx="1" ry="1" width="4" x="47.8" y="30.5"><title>2024-02-21 162.98 mins</title></rect><rect fill="#34A7FF" height="4" rx="1" ry="1" width="4" x="47.8" y="35.9"><title>2024-02-22 162.7 mins</title></rect><rect fill="#55b4fd" height="4" rx="1" ry="1" width="4" x="47.8" y="41.300000000000004"><title>2024-02-23 57.6 mins</title></rect><rect fill="#54b4fd" height="4" rx="1" ry="1" width="4" x="47.8" y="46.699999999999996"><title>2024-02-24 71.37 mins</title></rect><rect fill="#55b4fd" height="4" rx="1" ry="1" width="4" x="47.8" y="52.1"><title>2024-02-25 62.23 mins</title></rect><rect fill="#7ec5fc" height="4" rx="1" ry="1" width="4" x="53.199999999999996" y="19.7"><title>2024-02-26 20.12 mins</title></rect><rect fill="#54b4fd" height="4" rx="1" ry="1" width="4" x="53.199999999999996" y="25.1"><title>2024-02-27 72.87 mins</title></rect><rect fill="#34A7FF" height="4" rx="1" ry="1" width="4" x="53.199999999999996" y="30.5"><title>2024-02-28 194.67 mins</title></rect><rect fill="#51b2fd" height="4" rx="1" ry="1" width="4" x="53.199999999999996" y="35.9"><title>2024-02-29 108.98 mins</title></rect><rect fill="#55b4fd" height="4" rx="1" ry="1" width="4" x="53.199999999999996" y="41.300000000000004"><title>2024-03-01 59.75 mins</title></rect><rect fill="#7cc4fc" height="4" rx="1" ry="1" width="4" x="53.199999999999996" y="46.699999999999996"><title>2024-03-02 27.1 mins</title></rect><rect fill="#54b4fd" height="4" rx="1" ry="1" width="4" x="53.199999999999996" y="52.1"><title>2024-03-03 73.12 mins</title></rect><text fill="#586e75" style="font-size:2.5px; font-family:Arial" x="58.599999999999994" y="18.3">Mar</text><rect fill="#7fc5fc" height="4" rx="1" ry="1" width="4" x="58.599999999999994" y="19.7"><title>2024-03-04 11.65 mins</title></rect><rect fill="#80c5fc" height="4" rx="1" ry="1" width="4" x="58.599999999999994" y="25.1"><title>2024-03-05 7.55 mins</title></rect><rect fill="#7dc4fc" height="4" rx="1" ry="1" width="4" x="58.599999999999994" y="30.5"><title>2024-03-06 23.2 mins</title></rect><rect fill="#7ac3fc" height="4" rx="1" ry="1" width="4" x="58.599999999999994" y="35.9"><title>2024-03-07 39.78 mins</title></rect><rect fill="#34A7FF" height="4" rx="1" ry="1" width="4" x="58.599999999999994" y="41.300000000000004"><title>2024-03-08 290.4 mins</title></rect><rect fill="#51b2fd" height="4" rx="1" ry="1" width="4" x="58.599999999999994" y="46.699999999999996"><title>2024-03-09 105.15 mins</title></rect><rect fill="#52b3fd" height="4" rx="1" ry="1" width="4" x="58.599999999999994" y="52.1"><title>2024-03-10 91.2 mins</title></rect><rect fill="#7dc4fc" height="4" rx="1" ry="1" width="4" x="63.99999999999999" y="19.7"><title>2024-03-11 24.47 mins</title></rect><rect fill="#81c6fc" height="4" rx="1" ry="1" width="4" x="63.99999999999999" y="25.1"><title>2024-03-12 1.37 mins</title></rect><rect fill="#34A7FF" height="4" rx="1" ry="1" width="4" x="63.99999999999999" y="30.5"><title>2024-03-13 257.07 mins</title></rect><rect fill="#50b2fd" height="4" rx="1" ry="1" width="4" x="63.99999999999999" y="35.9"><title>2024-03-14 114.42 mins</title></rect><rect fill="#54b4fd" height="4" rx="1" ry="1" width="4" x="63.99999999999999" y="41.300000000000004"><title>2024-03-15 67.65 mins</title></rect><rect fill="#7dc4fc" height="4" rx="1" ry="1" width="4" x="63.99999999999999" y="46.699999999999996"><title>2024-03-16 23.52 mins</title></rect><rect fill="#81c6fc" height="4" rx="1" ry="1" width="4" x="63.99999999999999" y="52.1"><title>2024-03-17 2.07 mins</title></rect><rect fill="#81c6fc" height="4" rx="1" ry="1" width="4" x="69.39999999999999" y="19.7"><title>2024-03-18 0.03 mins</title></rect><rect fill="#7fc5fc" height="4" rx="1" ry="1" width="4" x="69.39999999999999" y="25.1"><title>2024-03-19 13.15 mins</title></rect><rect fill="#34A7FF" height="4" rx="1" ry="1" width="4" x="69.39999999999999" y="30.5"><title>2024-03-20 127.42 mins</title></rect><rect fill="#80c6fc" height="4" rx="1" ry="1" width="4" x="69.39999999999999" y="35.9"><title>2024-03-21 6.82 mins</title></rect><rect fill="#53b3fd" height="4" rx="1" ry="1" width="4" x="69.39999999999999" y="41.300000000000004"><title>2024-03-22 82.33 mins</title></rect><rect fill="#34A7FF" height="4" rx="1" ry="1" width="4" x="69.39999999999999" y="46.699999999999996"><title>2024-03-23 134.65 mins</title></rect><rect fill="#53b3fd" height="4" rx="1" ry="1" width="4" x="69.39999999999999" y="52.1"><title>2024-03-24 78.27 mins</title></rect><rect fill="#55b4fd" height="4" rx="1" ry="1" width="4" x="74.8" y="19.7"><title>2024-03-25 59.27 mins</title></rect><rect fill="#52b3fd" height="4" rx="1" ry="1" width="4" x="74.8" y="25.1"><title>2024-03-26 100.5 mins</title></rect><rect fill="#34A7FF" height="4" rx="1" ry="1" width="4" x="74.8" y="30.5"><title>2024-03-27 348.75 mins</title></rect><rect fill="#34A7FF" height="4" rx="1" ry="1" width="4" x="74.8" y="35.9"><title>2024-03-28 302.98 mins</title></rect><rect fill="#34A7FF" height="4" rx="1" ry="1" width="4" x="74.8" y="41.300000000000004"><title>2024-03-29 176.63 mins</title></rect><rect fill="#7cc4fc" height="4" rx="1" ry="1" width="4" x="74.8" y="46.699999999999996"><title>2024-03-30 30.83 mins</title></rect><rect fill="#79c3fc" height="4" rx="1" ry="1" width="4" x="74.8" y="52.1"><title>2024-03-31 46.62 mins</title></rect><text fill="#586e75" style="font-size:2.5px; font-family:Arial" x="80.2" y="18.3">Apr</text><rect fill="#81c6fc" height="4" rx="1" ry="1" width="4" x="80.2" y="19.7"><title>2024-04-01 1.07 mins</title></rect><rect fill="#81c6fc" height="4" rx="1" ry="1" width="4" x="80.2" y="25.1"><title>2024-04-02 2.8 mins</title></rect><rect fill="#80c6fc" height="4" rx="1" ry="1" width="4" x="80.2" y="30.5"><title>2024-04-03 4.72 mins</title></rect><rect fill="#34A7FF" height="4" rx="1" ry="1" width="4" x="80.2" y="35.9"><title>2024-04-04 261.48 mins</title></rect><rect fill="#80c6fc" height="4" rx="1" ry="1" width="4" x="80.2" y="41.300000000000004"><title>2024-04-05 3.27 mins</title></rect><rect fill="#7bc3fc" height="4" rx="1" ry="1" width="4" x="80.2" y="46.699999999999996"><title>2024-04-06 38.6 mins</title></rect><rect fill="#7fc5fc" height="4" rx="1" ry="1" width="4" x="80.2" y="52.1"><title>2024-04-07 12.47 mins</title></rect><rect fill="#7dc4fc" height="4" rx="1" ry="1" width="4" x="85.60000000000001" y="19.7"><title>2024-04-08 24.07 mins</title></rect><rect fill="#7ac3fc" height="4" rx="1" ry="1" width="4" x="85.60000000000001" y="25.1"><title>2024-04-09 42.32 mins</title></rect><rect fill="#34A7FF" height="4" rx="1" ry="1" width="4" x="85.60000000000001" y="30.5"><title>2024-04-10 275.62 mins</title></rect><rect fill="#7ec5fc" height="4" rx="1" ry="1" width="4" x="85.60000000000001" y="35.9"><title>2024-04-11 15.52 mins</title></rect><rect fill="#7fc5fc" height="4" rx="1" ry="1" width="4" x="85.60000000000001" y="41.300000000000004"><title>2024-04-12 9.25 mins</title></rect><rect fill="#79c2fc" height="4" rx="1" ry="1" width="4" x="85.60000000000001" y="46.699999999999996"><title>2024-04-13 50.5 mins</title></rect><rect fill="#7ec5fc" height="4" rx="1" ry="1" width="4" x="85.60000000000001" y="52.1"><title>2024-04-14 18.13 mins</title></rect><rect fill="#7dc4fc" height="4" rx="1" ry="1" width="4" x="91.00000000000001" y="19.7"><title>2024-04-15 26.12 mins</title></rect><rect fill="#eee8d5" height="4" rx="1" ry="1" width="4" x="91.00000000000001" y="25.1"><title>2024-04-16</title></rect><rect fill="#34A7FF" height="4" rx="1" ry="1" width="4" x="91.00000000000001" y="30.5"><title>2024-04-17 248.6 mins</title></rect><rect fill="#34A7FF" height="4" rx="1" ry="1" width="4" x="91.00000000000001" y="35.9"><title>2024-04-18 288.62 mins</title></rect><rect fill="#50b2fd" height="4" rx="1" ry="1" width="4" x="91.00000000000001" y="41.300000000000004"><title>2024-04-19 124.27 mins</title></rect><rect fill="#7bc4fc" height="4" rx="1" ry="1" width="4" x="91.00000000000001" y="46.699999999999996"><title>2024-04-20 34.03 mins</title></rect><rect fill="#52b3fd" height="4" rx="1" ry="1" width="4" x="91.00000000000001" y="52.1"><title>2024-04-21 97.03 mins</title></rect><rect fill="#7ec5fc" height="4" rx="1" ry="1" width="4" x="96.40000000000002" y="19.7"><title>2024-04-22 17.95 mins</title></rect><rect fill="#7dc4fc" height="4" rx="1" ry="1" width="4" x="96.40000000000002" y="25.1"><title>2024-04-23 24.72 mins</title></rect><rect fill="#7cc4fc" height="4" rx="1" ry="1" width="4" x="96.40000000000002" y="30.5"><title>2024-04-24 32.8 mins</title></rect><rect fill="#34A7FF" height="4" rx="1" ry="1" width="4" x="96.40000000000002" y="35.9"><title>2024-04-25 250.03 mins</title></rect><rect fill="#51b2fd" height="4" rx="1" ry="1" width="4" x="96.40000000000002" y="41.300000000000004"><title>2024-04-26 110.47 mins</title></rect><rect fill="#53b3fd" height="4" rx="1" ry="1" width="4" x="96.40000000000002" y="46.699999999999996"><title>2024-04-27 78.8 mins</title></rect><rect fill="#7dc4fc" height="4" rx="1" ry="1" width="4" x="96.40000000000002" y="52.1"><title>2024-04-28 25.9 mins</title></rect><rect fill="#51b2fd" height="4" rx="1" ry="1" width="4" x="101.80000000000003" y="19.7"><title>2024-04-29 108.15 mins</title></rect><rect fill="#50b2fd" height="4" rx="1" ry="1" width="4" x="101.80000000000003" y="25.1"><title>2024-04-30 115.17 mins</title></rect><rect fill="#34A7FF" height="4" rx="1" ry="1" width="4" x="101.80000000000003" y="30.5"><title>2024-05-01 163.5 mins</title></rect><rect fill="#7fc5fc" height="4" rx="1" ry="1" width="4" x="101.80000000000003" y="35.9"><title>2024-05-02 9.27 mins</title></rect><rect fill="#54b4fd" height="4" rx="1" ry="1" width="4" x="101.80000000000003" y="41.300000000000004"><title>2024-05-03 67.68 mins</title></rect><rect fill="#52b3fd" height="4" rx="1" ry="1" width="4" x="101.80000000000003" y="46.699999999999996"><title>2024-05-04 98.23 mins</title></rect><rect fill="#55b4fd" height="4" rx="1" ry="1" width="4" x="101.80000000000003" y="52.1"><title>2024-05-05 55.37 mins</title></rect><text fill="#586e75" style="font-size:2.5px; font-family:Arial" x="107.20000000000003" y="18.3">May</text><rect fill="#79c2fc" height="4" rx="1" ry="1" width="4" x="107.20000000000003" y="19.7"><title>2024-05-06 50.42 mins</title></rect><rect fill="#7ac3fc" height="4" rx="1" ry="1" width="4" x="107.20000000000003" y="25.1"><title>2024-05-07 39.98 mins</title></rect><rect fill="#7fc5fc" height="4" rx="1" ry="1" width="4" x="107.20000000000003" y="30.5"><title>2024-05-08 10.78 mins</title></rect><rect fill="#34A7FF" height="4" rx="1" ry="1" width="4" x="107.20000000000003" y="35.9"><title>2024-05-09 206.38 mins</title></rect><rect fill="#34A7FF" height="4" rx="1" ry="1" width="4" x="107.20000000000003" y="41.300000000000004"><title>2024-05-10 131.37 mins</title></rect><rect fill="#50b2fd" height="4" rx="1" ry="1" width="4" x="107.20000000000003" y="46.699999999999996"><title>2024-05-11 124.58 mins</title></rect><rect fill="#50b2fd" height="4" rx="1" ry="1" width="4" x="107.20000000000003" y="52.1"><title>2024-05-12 117.93 mins</title></rect><rect fill="#52b3fd" height="4" rx="1" ry="1" width="4" x="112.60000000000004" y="19.7"><title>2024-05-13 93.4 mins</title></rect><rect fill="#53b3fd" height="4" rx="1" ry="1" width="4" x="112.60000000000004" y="25.1"><title>2024-05-14 85.47 mins</title></rect><rect fill="#34A7FF" height="4" rx="1" ry="1" width="4" x="112.60000000000004" y="30.5"><title>2024-05-15 154.58 mins</title></rect><rect fill="#55b4fd" height="4" rx="1" ry="1" width="4" x="112.60000000000004" y="35.9"><title>2024-05-16 56.05 mins</title></rect><rect fill="#34A7FF" height="4" rx="1" ry="1" width="4" x="112.60000000000004" y="41.300000000000004"><title>2024-05-17 279.77 mins</title></rect><rect fill="#34A7FF" height="4" rx="1" ry="1" width="4" x="112.60000000000004" y="46.699999999999996"><title>2024-05-18 160.38 mins</title></rect><rect fill="#51b3fd" height="4" rx="1" ry="1" width="4" x="112.60000000000004" y="52.1"><title>2024-05-19 102.22 mins</title></rect><rect fill="#7ec5fc" height="4" rx="1" ry="1" width="4" x="118.00000000000004" y="19.7"><title>2024-05-20 20.12 mins</title></rect><rect fill="#50b2fd" height="4" rx="1" ry="1" width="4" x="118.00000000000004" y="25.1"><title>2024-05-21 115.97 mins</title></rect><rect fill="#34A7FF" height="4" rx="1" ry="1" width="4" x="118.00000000000004" y="30.5"><title>2024-05-22 305.47 mins</title></rect><rect fill="#34A7FF" height="4" rx="1" ry="1" width="4" x="118.00000000000004" y="35.9"><title>2024-05-23 141.4 mins</title></rect><rect fill="#34A7FF" height="4" rx="1" ry="1" width="4" x="118.00000000000004" y="41.300000000000004"><title>2024-05-24 161.77 mins</title></rect><rect fill="#34A7FF" height="4" rx="1" ry="1" width="4" x="118.00000000000004" y="46.699999999999996"><title>2024-05-25 184.67 mins</title></rect><rect fill="#50b2fd" height="4" rx="1" ry="1" width="4" x="118.00000000000004" y="52.1"><title>2024-05-26 121.82 mins</title></rect><rect fill="#52b3fd" height="4" rx="1" ry="1" width="4" x="123.40000000000005" y="19.7"><title>2024-05-27 92.32 mins</title></rect><rect fill="#55b4fd" height="4" rx="1" ry="1" width="4" x="123.40000000000005" y="25.1"><title>2024-05-28 61.48 mins</title></rect><rect fill="#34A7FF" height="4" rx="1" ry="1" width="4" x="123.40000000000005" y="30.5"><title>2024-05-29 271.05 mins</title></rect><rect fill="#34A7FF" height="4" rx="1" ry="1" width="4" x="123.40000000000005" y="35.9"><title>2024-05-30 139.85 mins</title></rect><rect fill="#53b3fd" height="4" rx="1" ry="1" width="4" x="123.40000000000005" y="41.300000000000004"><title>2024-05-31 78.83 mins</title></rect><rect fill="#54b4fd" height="4" rx="1" ry="1" width="4" x="123.40000000000005" y="46.699999999999996"><title>2024-06-01 68.27 mins</title></rect><rect fill="#79c2fc" height="4" rx="1" ry="1" width="4" x="123.40000000000005" y="52.1"><title>2024-06-02 50.52 mins</title></rect><text fill="#586e75" style="font-size:2.5px; font-family:Arial" x="128.80000000000004" y="18.3">Jun</text><rect fill="#7fc5fc" height="4" rx="1" ry="1" width="4" x="128.80000000000004" y="19.7"><title>2024-06-03 12.68 mins</title></rect><rect fill="#81c6fc" height="4" rx="1" ry="1" width="4" x="128.80000000000004" y="25.1"><title>2024-06-04 0.28 mins</title></rect><rect fill="#7fc5fc" height="4" rx="1" ry="1" width="4" x="128.80000000000004" y="30.5"><title>2024-06-05 13.33 mins</title></rect><rect fill="#80c5fc" height="4" rx="1" ry="1" width="4" x="128.80000000000004" y="35.9"><title>2024-06-06 8.8 mins</title></rect><rect fill="#52b3fd" height="4" rx="1" ry="1" width="4" x="128.80000000000004" y="41.300000000000004"><title>2024-06-07 100.57 mins</title></rect><rect fill="#34A7FF" height="4" rx="1" ry="1" width="4" x="128.80000000000004" y="46.699999999999996"><title>2024-06-08 153.7 mins</title></rect><rect fill="#51b2fd" height="4" rx="1" ry="1" width="4" x="128.80000000000004" y="52.1"><title>2024-06-09 111.92 mins</title></rect><rect fill="#55b4fd" height="4" rx="1" ry="1" width="4" x="134.20000000000005" y="19.7"><title>2024-06-10 58.08 mins</title></rect><rect fill="#7dc4fc" height="4" rx="1" ry="1" width="4" x="134.20000000000005" y="25.1"><title>2024-06-11 25.5 mins</title></rect><rect fill="#55b4fd" height="4" rx="1" ry="1" width="4" x="134.20000000000005" y="30.5"><title>2024-06-12 57.12 mins</title></rect><rect fill="#51b3fd" height="4" rx="1" ry="1" width="4" x="134.20000000000005" y="35.9"><title>2024-06-13 103.48 mins</title></rect><rect fill="#55b4fd" height="4" rx="1" ry="1" width="4" x="134.20000000000005" y="41.300000000000004"><title>2024-06-14 55.43 mins</title></rect><rect fill="#34A7FF" height="4" rx="1" ry="1" width="4" x="134.20000000000005" y="46.699999999999996"><title>2024-06-15 226.32 mins</title></rect><rect fill="#53b3fd" height="4" rx="1" ry="1" width="4" x="134.20000000000005" y="52.1"><title>2024-06-16 82.53 mins</title></rect><rect fill="#50b2fd" height="4" rx="1" ry="1" width="4" x="139.60000000000005" y="19.7"><title>2024-06-17 125.63 mins</title></rect><rect fill="#34A7FF" height="4" rx="1" ry="1" width="4" x="139.60000000000005" y="25.1"><title>2024-06-18 196.85 mins</title></rect><rect fill="#34A7FF" height="4" rx="1" ry="1" width="4" x="139.60000000000005" y="30.5"><title>2024-06-19 169.18 mins</title></rect><rect fill="#54b3fd" height="4" rx="1" ry="1" width="4" x="139.60000000000005" y="35.9"><title>2024-06-20 75.67 mins</title></rect><rect fill="#7ac3fc" height="4" rx="1" ry="1" width="4" x="139.60000000000005" y="41.300000000000004"><title>2024-06-21 44.73 mins</title></rect><rect fill="#52b3fd" height="4" rx="1" ry="1" width="4" x="139.60000000000005" y="46.699999999999996"><title>2024-06-22 94.95 mins</title></rect><rect fill="#51b2fd" height="4" rx="1" ry="1" width="4" x="139.60000000000005" y="52.1"><title>2024-06-23 108.62 mins</title></rect><rect fill="#51b2fd" height="4" rx="1" ry="1" width="4" x="145.00000000000006" y="19.7"><title>2024-06-24 106.07 mins</title></rect><rect fill="#34A7FF" height="4" rx="1" ry="1" width="4" x="145.00000000000006" y="25.1"><title>2024-06-25 152.48 mins</title></rect><rect fill="#34A7FF" height="4" rx="1" ry="1" width="4" x="145.00000000000006" y="30.5"><title>2024-06-26 156.65 mins</title></rect><rect fill="#34A7FF" height="4" rx="1" ry="1" width="4" x="145.00000000000006" y="35.9"><title>2024-06-27 365.3 mins</title></rect><rect fill="#50b2fd" height="4" rx="1" ry="1" width="4" x="145.00000000000006" y="41.300000000000004"><title>2024-06-28 123.2 mins</title></rect><rect fill="#53b3fd" height="4" rx="1" ry="1" width="4" x="145.00000000000006" y="46.699999999999996"><title>2024-06-29 84.08 mins</title></rect><rect fill="#52b3fd" height="4" rx="1" ry="1" width="4" x="145.00000000000006" y="52.1"><title>2024-06-30 90.37 mins</title></rect><text fill="#586e75" style="font-size:2.5px; font-family:Arial" x="150.40000000000006" y="18.3">Jul</text><rect fill="#53b3fd" height="4" rx="1" ry="1" width="4" x="150.40000000000006" y="19.7"><title>2024-07-01 81.38 mins</title></rect><rect fill="#54b4fd" height="4" rx="1" ry="1" width="4" x="150.40000000000006" y="25.1"><title>2024-07-02 73.02 mins</title></rect><rect fill="#34A7FF" height="4" rx="1" ry="1" width="4" x="150.40000000000006" y="30.5"><title>2024-07-03 207.8 mins</title></rect><rect fill="#34A7FF" height="4" rx="1" ry="1" width="4" x="150.40000000000006" y="35.9"><title>2024-07-04 156.48 mins</title></rect><rect fill="#7cc4fc" height="4" rx="1" ry="1" width="4" x="150.40000000000006" y="41.300000000000004"><title>2024-07-05 27.4 mins</title></rect><rect fill="#81c6fc" height="4" rx="1" ry="1" width="4" x="150.40000000000006" y="46.699999999999996"><title>2024-07-06 0.05 mins</title></rect><rect fill="#80c6fc" height="4" rx="1" ry="1" width="4" x="150.40000000000006" y="52.1"><title>2024-07-07 5.23 mins</title></rect><rect fill="#7cc4fc" height="4" rx="1" ry="1" width="4" x="155.80000000000007" y="19.7"><title>2024-07-08 27.1 mins</title></rect><rect fill="#55b4fd" height="4" rx="1" ry="1" width="4" x="155.80000000000007" y="25.1"><title>2024-07-09 58.83 mins</title></rect><rect fill="#7dc4fc" height="4" rx="1" ry="1" width="4" x="155.80000000000007" y="30.5"><title>2024-07-10 23.88 mins</title></rect><rect fill="#7ec5fc" height="4" rx="1" ry="1" width="4" x="155.80000000000007" y="35.9"><title>2024-07-11 16.45 mins</title></rect><rect fill="#7ac3fc" height="4" rx="1" ry="1" width="4" x="155.80000000000007" y="41.300000000000004"><title>2024-07-12 41.95 mins</title></rect><rect fill="#7fc5fc" height="4" rx="1" ry="1" width="4" x="155.80000000000007" y="46.699999999999996"><title>2024-07-13 11.42 mins</title></rect><rect fill="#34A7FF" height="4" rx="1" ry="1" width="4" x="155.80000000000007" y="52.1"><title>2024-07-14 161.35 mins</title></rect><rect fill="#34A7FF" height="4" rx="1" ry="1" width="4" x="161.20000000000007" y="19.7"><title>2024-07-15 134.55 mins</title></rect><rect fill="#34A7FF" height="4" rx="1" ry="1" width="4" x="161.20000000000007" y="25.1"><title>2024-07-16 199.88 mins</title></rect><rect fill="#34A7FF" height="4" rx="1" ry="1" width="4" x="161.20000000000007" y="30.5"><title>2024-07-17 292.2 mins</title></rect><rect fill="#51b2fd" height="4" rx="1" ry="1" width="4" x="161.20000000000007" y="35.9"><title>2024-07-18 104.77 mins</title></rect><rect fill="#54b3fd" height="4" rx="1" ry="1" width="4" x="161.20000000000007" y="41.300000000000004"><title>2024-07-19 76.77 mins</title></rect><rect fill="#81c6fc" height="4" rx="1" ry="1" width="4" x="161.20000000000007" y="46.699999999999996"><title>2024-07-20 0.1 mins</title></rect><rect fill="#7ac3fc" height="4" rx="1" ry="1" width="4" x="161.20000000000007" y="52.1"><title>2024-07-21 40.63 mins</title></rect><rect fill="#34A7FF" height="4" rx="1" ry="1" width="4" x="166.60000000000008" y="19.7"><title>2024-07-22 176.3 mins</title></rect><rect fill="#52b3fd" height="4" rx="1" ry="1" width="4" x="166.60000000000008" y="25.1"><title>2024-07-23 93.87 mins</title></rect><rect fill="#50b2fd" height="4" rx="1" ry="1" width="4" x="166.60000000000008" y="30.5"><title>2024-07-24 120.75 mins</title></rect><rect fill="#54b4fd" height="4" rx="1" ry="1" width="4" x="166.60000000000008" y="35.9"><title>2024-07-25 73.35 mins</title></rect><rect fill="#55b4fd" height="4" rx="1" ry="1" width="4" x="166.60000000000008" y="41.300000000000004"><title>2024-07-26 65.13 mins</title></rect><rect fill="#34A7FF" height="4" rx="1" ry="1" width="4" x="166.60000000000008" y="46.699999999999996"><title>2024-07-27 129.77 mins</title></rect><rect fill="#52b3fd" height="4" rx="1" ry="1" width="4" x="166.60000000000008" y="52.1"><title>2024-07-28 91.53 mins</title></rect><rect fill="#7bc3fc" height="4" rx="1" ry="1" width="4" x="172.00000000000009" y="19.7"><title>2024-07-29 38.65 mins</title></rect><rect fill="#34A7FF" height="4" rx="1" ry="1" width="4" x="172.00000000000009" y="25.1"><title>2024-07-30 149.77 mins</title></rect><rect fill="#34A7FF" height="4" rx="1" ry="1" width="4" x="172.00000000000009" y="30.5"><title>2024-07-31 217.05 mins</title></rect><rect fill="#50b2fd" height="4" rx="1" ry="1" width="4" x="172.00000000000009" y="35.9"><title>2024-08-01 119.52 mins</title></rect><rect fill="#54b4fd" height="4" rx="1" ry="1" width="4" x="172.00000000000009" y="41.300000000000004"><title>2024-08-02 71.25 mins</title></rect><rect fill="#34A7FF" height="4" rx="1" ry="1" width="4" x="172.00000000000009" y="46.699999999999996"><title>2024-08-03 151.0 mins</title></rect><rect fill="#79c3fc" height="4" rx="1" ry="1" width="4" x="172.00000000000009" y="52.1"><title>2024-08-04 50.05 mins</title></rect><text fill="#586e75" style="font-size:2.5px; font-family:Arial" x="177.4000000000001" y="18.3">Aug</text><rect fill="#53b3fd" height="4" rx="1" ry="1" width="4" x="177.4000000000001" y="19.7"><title>2024-08-05 82.15 mins</title></rect><rect fill="#78c2fc" height="4" rx="1" ry="1" width="4" x="177.4000000000001" y="25.1"><title>2024-08-06 54.2 mins</title></rect><rect fill="#52b3fd" height="4" rx="1" ry="1" width="4" x="177.4000000000001" y="30.5"><title>2024-08-07 90.77 mins</title></rect><rect fill="#51b2fd" height="4" rx="1" ry="1" width="4" x="177.4000000000001" y="35.9"><title>2024-08-08 107.38 mins</title></rect><rect fill="#34A7FF" height="4" rx="1" ry="1" width="4" x="177.4000000000001" y="41.300000000000004"><title>2024-08-09 135.35 mins</title></rect><rect fill="#81c6fc" height="4" rx="1" ry="1" width="4" x="177.4000000000001" y="46.699999999999996"><title>2024-08-10 0.03 mins</title></rect><rect fill="#7bc3fc" height="4" rx="1" ry="1" width="4" x="177.4000000000001" y="52.1"><title>2024-08-11 37.25 mins</title></rect><rect fill="#34A7FF" height="4" rx="1" ry="1" width="4" x="182.8000000000001" y="19.7"><title>2024-08-12 168.67 mins</title></rect><rect fill="#55b4fd" height="4" rx="1" ry="1" width="4" x="182.8000000000001" y="25.1"><title>2024-08-13 57.0 mins</title></rect><rect fill="#78c2fc" height="4" rx="1" ry="1" width="4" x="182.8000000000001" y="30.5"><title>2024-08-14 52.92 mins</title></rect><rect fill="#34A7FF" height="4" rx="1" ry="1" width="4" x="182.8000000000001" y="35.9"><title>2024-08-15 308.93 mins</title></rect><rect fill="#34A7FF" height="4" rx="1" ry="1" width="4" x="182.8000000000001" y="41.300000000000004"><title>2024-08-16 451.8 mins</title></rect><rect fill="#34A7FF" height="4" rx="1" ry="1" width="4" x="182.8000000000001" y="46.699999999999996"><title>2024-08-17 137.28 mins</title></rect><rect fill="#34A7FF" height="4" rx="1" ry="1" width="4" x="182.8000000000001" y="52.1"><title>2024-08-18 139.33 mins</title></rect><rect fill="#51b3fd" height="4" rx="1" ry="1" width="4" x="188.2000000000001" y="19.7"><title>2024-08-19 103.52 mins</title></rect><rect fill="#7ac3fc" height="4" rx="1" ry="1" width="4" x="188.2000000000001" y="25.1"><title>2024-08-20 39.72 mins</title></rect><rect fill="#34A7FF" height="4" rx="1" ry="1" width="4" x="188.2000000000001" y="30.5"><title>2024-08-21 153.47 mins</title></rect><rect fill="#34A7FF" height="4" rx="1" ry="1" width="4" x="188.2000000000001" y="35.9"><title>2024-08-22 192.33 mins</title></rect><rect fill="#52b3fd" height="4" rx="1" ry="1" width="4" x="188.2000000000001" y="41.300000000000004"><title>2024-08-23 97.0 mins</title></rect><rect fill="#53b3fd" height="4" rx="1" ry="1" width="4" x="188.2000000000001" y="46.699999999999996"><title>2024-08-24 83.12 mins</title></rect><rect fill="#52b3fd" height="4" rx="1" ry="1" width="4" x="188.2000000000001" y="52.1"><title>2024-08-25 91.05 mins</title></rect><rect fill="#34A7FF" height="4" rx="1" ry="1" width="4" x="193.6000000000001" y="19.7"><title>2024-08-26 126.18 mins</title></rect><rect fill="#53b3fd" height="4" rx="1" ry="1" width="4" x="193.6000000000001" y="25.1"><title>2024-08-27 82.92 mins</title></rect><rect fill="#79c3fc" height="4" rx="1" ry="1" width="4" x="193.6000000000001" y="30.5"><title>2024-08-28 48.8 mins</title></rect><rect fill="#52b3fd" height="4" rx="1" ry="1" width="4" x="193.6000000000001" y="35.9"><title>2024-08-29 94.78 mins</title></rect><rect fill="#7cc4fc" height="4" rx="1" ry="1" width="4" x="193.6000000000001" y="41.300000000000004"><title>2024-08-30 27.47 mins</title></rect><rect fill="#52b3fd" height="4" rx="1" ry="1" width="4" x="193.6000000000001" y="46.699999999999996"><title>2024-08-31 98.87 mins</title></rect><rect fill="#34A7FF" height="4" rx="1" ry="1" width="4" x="193.6000000000001" y="52.1"><title>2024-09-01 148.77 mins</title></rect><text fill="#586e75" style="font-size:2.5px; font-family:Arial" x="199.0000000000001" y="18.3">Sep</text><rect fill="#7ec5fc" height="4" rx="1" ry="1" width="4" x="199.0000000000001" y="19.7"><title>2024-09-02 19.98 mins</title></rect><rect fill="#51b2fd" height="4" rx="1" ry="1" width="4" x="199.0000000000001" y="25.1"><title>2024-09-03 110.85 mins</title></rect><rect fill="#81c6fc" height="4" rx="1" ry="1" width="4" x="199.0000000000001" y="30.5"><title>2024-09-04 2.15 mins</title></rect><rect fill="#81c6fc" height="4" rx="1" ry="1" width="4" x="199.0000000000001" y="35.9"><title>2024-09-05 0.15 mins</title></rect><rect fill="#34A7FF" height="4" rx="1" ry="1" width="4" x="199.0000000000001" y="41.300000000000004"><title>2024-09-06 236.42 mins</title></rect><rect fill="#34A7FF" height="4" rx="1" ry="1" width="4" x="199.0000000000001" y="46.699999999999996"><title>2024-09-07 177.48 mins</title></rect><rect fill="#7cc4fc" height="4" rx="1" ry="1" width="4" x="199.0000000000001" y="52.1"><title>2024-09-08 27.7 mins</title></rect><rect fill="#55b4fd" height="4" rx="1" ry="1" width="4" x="204.40000000000012" y="19.7"><title>2024-09-09 63.93 mins</title></rect><rect fill="#55b4fd" height="4" rx="1" ry="1" width="4" x="204.40000000000012" y="25.1"><title>2024-09-10 58.45 mins</title></rect><rect fill="#34A7FF" height="4" rx="1" ry="1" width="4" x="204.40000000000012" y="30.5"><title>2024-09-11 417.5 mins</title></rect><rect fill="#78c2fc" height="4" rx="1" ry="1" width="4" x="204.40000000000012" y="35.9"><title>2024-09-12 51.2 mins</title></rect><rect fill="#55b4fd" height="4" rx="1" ry="1" width="4" x="204.40000000000012" y="41.300000000000004"><title>2024-09-13 63.87 mins</title></rect><rect fill="#7cc4fc" height="4" rx="1" ry="1" width="4" x="204.40000000000012" y="46.699999999999996"><title>2024-09-14 27.23 mins</title></rect><rect fill="#81c6fc" height="4" rx="1" ry="1" width="4" x="204.40000000000012" y="52.1"><title>2024-09-15 0.05 mins</title></rect><rect fill="#81c6fc" height="4" rx="1" ry="1" width="4" x="209.80000000000013" y="19.7"><title>2024-09-16 0.32 mins</title></rect><rect fill="#80c6fc" height="4" rx="1" ry="1" width="4" x="209.80000000000013" y="25.1"><title>2024-09-17 5.73 mins</title></rect><rect fill="#7cc4fc" height="4" rx="1" ry="1" width="4" x="209.80000000000013" y="30.5"><title>2024-09-18 28.87 mins</title></rect><rect fill="#7ec5fc" height="4" rx="1" ry="1" width="4" x="209.80000000000013" y="35.9"><title>2024-09-19 16.98 mins</title></rect><rect fill="#7dc4fc" height="4" rx="1" ry="1" width="4" x="209.80000000000013" y="41.300000000000004"><title>2024-09-20 26.47 mins</title></rect><rect fill="#34A7FF" height="4" rx="1" ry="1" width="4" x="209.80000000000013" y="46.699999999999996"><title>2024-09-21 184.0 mins</title></rect><rect fill="#55b4fd" height="4" rx="1" ry="1" width="4" x="209.80000000000013" y="52.1"><title>2024-09-22 59.17 mins</title></rect><rect fill="#7ac3fc" height="4" rx="1" ry="1" width="4" x="215.20000000000013" y="19.7"><title>2024-09-23 41.05 mins</title></rect><rect fill="#54b4fd" height="4" rx="1" ry="1" width="4" x="215.20000000000013" y="25.1"><title>2024-09-24 68.07 mins</title></rect><rect fill="#34A7FF" height="4" rx="1" ry="1" width="4" x="215.20000000000013" y="30.5"><title>2024-09-25 296.98 mins</title></rect><rect fill="#7ec5fc" height="4" rx="1" ry="1" width="4" x="215.20000000000013" y="35.9"><title>2024-09-26 16.92 mins</title></rect><rect fill="#79c3fc" height="4" rx="1" ry="1" width="4" x="215.20000000000013" y="41.300000000000004"><title>2024-09-27 48.08 mins</title></rect><rect fill="#7cc4fc" height="4" rx="1" ry="1" width="4" x="215.20000000000013" y="46.699999999999996"><title>2024-09-28 31.23 mins</title></rect><rect fill="#7ac3fc" height="4" rx="1" ry="1" width="4" x="215.20000000000013" y="52.1"><title>2024-09-29 42.23 mins</title></rect><rect fill="#7dc4fc" height="4" rx="1" ry="1" width="4" x="220.60000000000014" y="19.7"><title>2024-09-30 26.85 mins</title></rect><rect fill="#54b4fd" height="4" rx="1" ry="1" width="4" x="220.60000000000014" y="25.1"><title>2024-10-01 73.98 mins</title></rect><rect fill="#54b4fd" height="4" rx="1" ry="1" width="4" x="220.60000000000014" y="30.5"><title>2024-10-02 70.2 mins</title></rect><rect fill="#34A7FF" height="4" rx="1" ry="1" width="4" x="220.60000000000014" y="35.9"><title>2024-10-03 143.57 mins</title></rect><rect fill="#eee8d5" height="4" rx="1" ry="1" width="4" x="220.60000000000014" y="41.300000000000004"><title>2024-10-04</title></rect><rect fill="#eee8d5" height="4" rx="1" ry="1" width="4" x="220.60000000000014" y="46.699999999999996"><title>2024-10-05</title></rect><rect fill="#eee8d5" height="4" rx="1" ry="1" width="4" x="220.60000000000014" y="52.1"><title>2024-10-06</title></rect><text fill="#586e75" style="font-size:2.5px; font-family:Arial" x="226.00000000000014" y="18.3">Oct</text><rect fill="#eee8d5" height="4" rx="1" ry="1" width="4" x="226.00000000000014" y="19.7"><title>2024-10-07</title></rect><rect fill="#eee8d5" height="4" rx="1" ry="1" width="4" x="226.00000000000014" y="25.1"><title>2024-10-08</title></rect><rect fill="#eee8d5" height="4" rx="1" ry="1" width="4" x="226.00000000000014" y="30.5"><title>2024-10-09</title></rect><rect fill="#eee8d5" height="4" rx="1" ry="1" width="4" x="226.00000000000014" y="35.9"><title>2024-10-10</title></rect><rect fill="#eee8d5" height="4" rx="1" ry="1" width="4" x="226.00000000000014" y="41.300000000000004"><title>2024-10-11</title></rect><rect fill="#eee8d5" height="4" rx="1" ry="1" width="4" x="226.00000000000014" y="46.699999999999996"><title>2024-10-12</title></rect><rect fill="#eee8d5" height="4" rx="1" ry="1" width="4" x="226.00000000000014" y="52.1"><title>2024-10-13</title></rect><rect fill="#eee8d5" height="4" rx="1" ry="1" width="4" x="231.40000000000015" y="19.7"><title>2024-10-14</title></rect><rect fill="#eee8d5" height="4" rx="1" ry="1" width="4" x="231.40000000000015" y="25.1"><title>2024-10-15</title></rect><rect fill="#eee8d5" height="4" rx="1" ry="1" width="4" x="231.40000000000015" y="30.5"><title>2024-10-16</title></rect><rect fill="#eee8d5" height="4" rx="1" ry="1" width="4" x="231.40000000000015" y="35.9"><title>2024-10-17</title></rect><rect fill="#eee8d5" height="4" rx="1" ry="1" width="4" x="231.40000000000015" y="41.300000000000004"><title>2024-10-18</title></rect><rect fill="#eee8d5" height="4" rx="1" ry="1" width="4" x="231.40000000000015" y="46.699999999999996"><title>2024-10-19</title></rect><rect fill="#eee8d5" height="4" rx="1" ry="1" width="4" x="231.40000000000015" y="52.1"><title>2024-10-20</title></rect><rect fill="#eee8d5" height="4" rx="1" ry="1" width="4" x="236.80000000000015" y="19.7"><title>2024-10-21</title></rect><rect fill="#eee8d5" height="4" rx="1" ry="1" width="4" x="236.80000000000015" y="25.1"><title>2024-10-22</title></rect><rect fill="#eee8d5" height="4" rx="1" ry="1" width="4" x="236.80000000000015" y="30.5"><title>2024-10-23</title></rect><rect fill="#eee8d5" height="4" rx="1" ry="1" width="4" x="236.80000000000015" y="35.9"><title>2024-10-24</title></rect><rect fill="#eee8d5" height="4" rx="1" ry="1" width="4" x="236.80000000000015" y="41.300000000000004"><title>2024-10-25</title></rect><rect fill="#eee8d5" height="4" rx="1" ry="1" width="4" x="236.80000000000015" y="46.699999999999996"><title>2024-10-26</title></rect><rect fill="#eee8d5" height="4" rx="1" ry="1" width="4" x="236.80000000000015" y="52.1"><title>2024-10-27</title></rect><rect fill="#eee8d5" height="4" rx="1" ry="1" width="4" x="242.20000000000016" y="19.7"><title>2024-10-28</title></rect><rect fill="#eee8d5" height="4" rx="1" ry="1" width="4" x="242.20000000000016" y="25.1"><title>2024-10-29</title></rect><rect fill="#eee8d5" height="4" rx="1" ry="1" width="4" x="242.20000000000016" y="30.5"><title>2024-10-30</title></rect><rect fill="#eee8d5" height="4" rx="1" ry="1" width="4" x="242.20000000000016" y="35.9"><title>2024-10-31</title></rect><rect fill="#eee8d5" height="4" rx="1" ry="1" width="4" x="242.20000000000016" y="41.300000000000004"><title>2024-11-01</title></rect><rect fill="#eee8d5" height="4" rx="1" ry="1" width="4" x="242.20000000000016" y="46.699999999999996"><title>2024-11-02</title></rect><rect fill="#eee8d5" height="4" rx="1" ry="1" width="4" x="242.20000000000016" y="52.1"><title>2024-11-03</title></rect><text fill="#586e75" style="font-size:2.5px; font-family:Arial" x="247.60000000000016" y="18.3">Nov</text><rect fill="#eee8d5" height="4" rx="1" ry="1" width="4" x="247.60000000000016" y="19.7"><title>2024-11-04</title></rect><rect fill="#eee8d5" height="4" rx="1" ry="1" width="4" x="247.60000000000016" y="25.1"><title>2024-11-05</title></rect><rect fill="#eee8d5" height="4" rx="1" ry="1" width="4" x="247.60000000000016" y="30.5"><title>2024-11-06</title></rect><rect fill="#eee8d5" height="4" rx="1" ry="1" width="4" x="247.60000000000016" y="35.9"><title>2024-11-07</title></rect><rect fill="#eee8d5" height="4" rx="1" ry="1" width="4" x="247.60000000000016" y="41.300000000000004"><title>2024-11-08</title></rect><rect fill="#eee8d5" height="4" rx="1" ry="1" width="4" x="247.60000000000016" y="46.699999999999996"><title>2024-11-09</title></rect><rect fill="#eee8d5" height="4" rx="1" ry="1" width="4" x="247.60000000000016" y="52.1"><title>2024-11-10</title></rect><rect fill="#eee8d5" height="4" rx="1" ry="1" width="4" x="253.00000000000017" y="19.7"><title>2024-11-11</title></rect><rect fill="#eee8d5" height="4" rx="1" ry="1" width="4" x="253.00000000000017" y="25.1"><title>2024-11-12</title></rect><rect fill="#eee8d5" height="4" rx="1" ry="1" width="4" x="253.00000000000017" y="30.5"><title>2024-11-13</title></rect><rect fill="#eee8d5" height="4" rx="1" ry="1" width="4" x="253.00000000000017" y="35.9"><title>2024-11-14</title></rect><rect fill="#eee8d5" height="4" rx="1" ry="1" width="4" x="253.00000000000017" y="41.300000000000004"><title>2024-11-15</title></rect><rect fill="#eee8d5" height="4" rx="1" ry="1" width="4" x="253.00000000000017" y="46.699999999999996"><title>2024-11-16</title></rect><rect fill="#eee8d5" height="4" rx="1" ry="1" width="4" x="253.00000000000017" y="52.1"><title>2024-11-17</title></rect><rect fill="#eee8d5" height="4" rx="1" ry="1" width="4" x="258.40000000000015" y="19.7"><title>2024-11-18</title></rect><rect fill="#eee8d5" height="4" rx="1" ry="1" width="4" x="258.40000000000015" y="25.1"><title>2024-11-19</title></rect><rect fill="#eee8d5" height="4" rx="1" ry="1" width="4" x="258.40000000000015" y="30.5"><title>2024-11-20</title></rect><rect fill="#eee8d5" height="4" rx="1" ry="1" width="4" x="258.40000000000015" y="35.9"><title>2024-11-21</title></rect><rect fill="#eee8d5" height="4" rx="1" ry="1" width="4" x="258.40000000000015" y="41.300000000000004"><title>2024-11-22</title></rect><rect fill="#eee8d5" height="4" rx="1" ry="1" width="4" x="258.40000000000015" y="46.699999999999996"><title>2024-11-23</title></rect><rect fill="#eee8d5" height="4" rx="1" ry="1" width="4" x="258.40000000000015" y="52.1"><title>2024-11-24</title></rect><rect fill="#eee8d5" height="4" rx="1" ry="1" width="4" x="263.8000000000001" y="19.7"><title>2024-11-25</title></rect><rect fill="#eee8d5" height="4" rx="1" ry="1" width="4" x="263.8000000000001" y="25.1"><title>2024-11-26</title></rect><rect fill="#eee8d5" height="4" rx="1" ry="1" width="4" x="263.8000000000001" y="30.5"><title>2024-11-27</title></rect><rect fill="#eee8d5" height="4" rx="1" ry="1" width="4" x="263.8000000000001" y="35.9"><title>2024-11-28</title></rect><rect fill="#eee8d5" height="4" rx="1" ry="1" width="4" x="263.8000000000001" y="41.300000000000004"><title>2024-11-29</title></rect><rect fill="#eee8d5" height="4" rx="1" ry="1" width="4" x="263.8000000000001" y="46.699999999999996"><title>2024-11-30</title></rect><rect fill="#eee8d5" height="4" rx="1" ry="1" width="4" x="263.8000000000001" y="52.1"><title>2024-12-01</title></rect><text fill="#586e75" style="font-size:2.5px; font-family:Arial" x="269.2000000000001" y="18.3">Dec</text><rect fill="#eee8d5" height="4" rx="1" ry="1" width="4" x="269.2000000000001" y="19.7"><title>2024-12-02</title></rect><rect fill="#eee8d5" height="4" rx="1" ry="1" width="4" x="269.2000000000001" y="25.1"><title>2024-12-03</title></rect><rect fill="#eee8d5" height="4" rx="1" ry="1" width="4" x="269.2000000000001" y="30.5"><title>2024-12-04</title></rect><rect fill="#eee8d5" height="4" rx="1" ry="1" width="4" x="269.2000000000001" y="35.9"><title>2024-12-05</title></rect><rect fill="#eee8d5" height="4" rx="1" ry="1" width="4" x="269.2000000000001" y="41.300000000000004"><title>2024-12-06</title></rect><rect fill="#eee8d5" height="4" rx="1" ry="1" width="4" x="269.2000000000001" y="46.699999999999996"><title>2024-12-07</title></rect><rect fill="#eee8d5" height="4" rx="1" ry="1" width="4" x="269.2000000000001" y="52.1"><title>2024-12-08</title></rect><rect fill="#eee8d5" height="4" rx="1" ry="1" width="4" x="274.6000000000001" y="19.7"><title>2024-12-09</title></rect><rect fill="#eee8d5" height="4" rx="1" ry="1" width="4" x="274.6000000000001" y="25.1"><title>2024-12-10</title></rect><rect fill="#eee8d5" height="4" rx="1" ry="1" width="4" x="274.6000000000001" y="30.5"><title>2024-12-11</title></rect><rect fill="#eee8d5" height="4" rx="1" ry="1" width="4" x="274.6000000000001" y="35.9"><title>2024-12-12</title></rect><rect fill="#eee8d5" height="4" rx="1" ry="1" width="4" x="274.6000000000001" y="41.300000000000004"><title>2024-12-13</title></rect><rect fill="#eee8d5" height="4" rx="1" ry="1" width="4" x="274.6000000000001" y="46.699999999999996"><title>2024-12-14</title></rect><rect fill="#eee8d5" height="4" rx="1" ry="1" width="4" x="274.6000000000001" y="52.1"><title>2024-12-15</title></rect><rect fill="#eee8d5" height="4" rx="1" ry="1" width="4" x="280.00000000000006" y="19.7"><title>2024-12-16</title></rect><rect fill="#eee8d5" height="4" rx="1" ry="1" width="4" x="280.00000000000006" y="25.1"><title>2024-12-17</title></rect><rect fill="#eee8d5" height="4" rx="1" ry="1" width="4" x="280.00000000000006" y="30.5"><title>2024-12-18</title></rect><rect fill="#eee8d5" height="4" rx="1" ry="1" width="4" x="280.00000000000006" y="35.9"><title>2024-12-19</title></rect><rect fill="#eee8d5" height="4" rx="1" ry="1" width="4" x="280.00000000000006" y="41.300000000000004"><title>2024-12-20</title></rect><rect fill="#eee8d5" height="4" rx="1" ry="1" width="4" x="280.00000000000006" y="46.699999999999996"><title>2024-12-21</title></rect><rect fill="#eee8d5" height="4" rx="1" ry="1" width="4" x="280.00000000000006" y="52.1"><title>2024-12-22</title></rect><rect fill="#eee8d5" height="4" rx="1" ry="1" width="4" x="285.40000000000003" y="19.7"><title>2024-12-23</title></rect><rect fill="#eee8d5" height="4" rx="1" ry="1" width="4" x="285.40000000000003" y="25.1"><title>2024-12-24</title></rect><rect fill="#eee8d5" height="4" rx="1" ry="1" width="4" x="285.40000000000003" y="30.5"><title>2024-12-25</title></rect><rect fill="#eee8d5" height="4" rx="1" ry="1" width="4" x="285.40000000000003" y="35.9"><title>2024-12-26</title></rect><rect fill="#eee8d5" height="4" rx="1" ry="1" width="4" x="285.40000000000003" y="41.300000000000004"><title>2024-12-27</title></rect><rect fill="#eee8d5" height="4" rx="1" ry="1" width="4" x="285.40000000000003" y="46.699999999999996"><title>2024-12-28</title></rect><rect fill="#eee8d5" height="4" rx="1" ry="1" width="4" x="285.40000000000003" y="52.1"><title>2024-12-29</title></rect><rect fill="#eee8d5" height="4" rx="1" ry="1" width="4" x="290.8" y="19.7"><title>2024-12-30</title></rect><rect fill="#eee8d5" height="4" rx="1" ry="1" width="4" x="290.8" y="25.1"><title>2024-12-31</title></rect></svg>